<svg id="visual" viewBox="0 0 960 300" width="960" height="300" xmlns="http://www.w3.org/2000/svg" xmlns:xlink="http://www.w3.org/1999/xlink" version="1.1">
    <path d="M0 156L22.8 159.5C45.7 163 91.3 170 137 172.7C182.7 175.3 228.3 173.7 274 165.2C319.7 156.7 365.3 141.3 411.2 141.2C457 141 503 156 548.8 159.2C594.7 162.3 640.3 153.7 686 153.3C731.7 153 777.3 161 823 159.3C868.7 157.7 914.3 146.3 937.2 140.7L960 135L960 0L937.2 0C914.3 0 868.7 0 823 0C777.3 0 731.7 0 686 0C640.3 0 594.7 0 548.8 0C503 0 457 0 411.2 0C365.3 0 319.7 0 274 0C228.3 0 182.7 0 137 0C91.3 0 45.7 0 22.8 0L0 0Z" fill="#400598"></path>
    <path d="M0 105L22.8 114C45.7 123 91.3 141 137 145.5C182.7 150 228.3 141 274 141.5C319.7 142 365.3 152 411.2 154.8C457 157.7 503 153.3 548.8 149.8C594.7 146.3 640.3 143.7 686 134.5C731.7 125.3 777.3 109.7 823 106.3C868.7 103 914.3 112 937.2 116.5L960 121L960 0L937.2 0C914.3 0 868.7 0 823 0C777.3 0 731.7 0 686 0C640.3 0 594.7 0 548.8 0C503 0 457 0 411.2 0C365.3 0 319.7 0 274 0C228.3 0 182.7 0 137 0C91.3 0 45.7 0 22.8 0L0 0Z" fill="#532caf"></path>
    <path d="M0 100L22.8 95.8C45.7 91.7 91.3 83.3 137 87.5C182.7 91.7 228.3 108.3 274 117C319.7 125.7 365.3 126.3 411.2 119.3C457 112.3 503 97.7 548.8 91.7C594.7 85.7 640.3 88.3 686 85.7C731.7 83 777.3 75 823 75C868.7 75 914.3 83 937.2 87L960 91L960 0L937.2 0C914.3 0 868.7 0 823 0C777.3 0 731.7 0 686 0C640.3 0 594.7 0 548.8 0C503 0 457 0 411.2 0C365.3 0 319.7 0 274 0C228.3 0 182.7 0 137 0C91.3 0 45.7 0 22.8 0L0 0Z" fill="#6648c5"></path>
    <path d="M0 46L22.8 44.3C45.7 42.7 91.3 39.3 137 43.3C182.7 47.3 228.3 58.7 274 67.5C319.7 76.3 365.3 82.7 411.2 76.8C457 71 503 53 548.8 52.8C594.7 52.7 640.3 70.3 686 77.5C731.7 84.7 777.3 81.3 823 75.5C868.7 69.7 914.3 61.3 937.2 57.2L960 53L960 0L937.2 0C914.3 0 868.7 0 823 0C777.3 0 731.7 0 686 0C640.3 0 594.7 0 548.8 0C503 0 457 0 411.2 0C365.3 0 319.7 0 274 0C228.3 0 182.7 0 137 0C91.3 0 45.7 0 22.8 0L0 0Z" fill="#7963db"></path>
    <path d="M0 54L22.8 47.5C45.7 41 91.3 28 137 26.7C182.7 25.3 228.3 35.7 274 40.2C319.7 44.7 365.3 43.3 411.2 39.3C457 35.3 503 28.7 548.8 31.5C594.7 34.3 640.3 46.7 686 46.7C731.7 46.7 777.3 34.3 823 30.5C868.7 26.7 914.3 31.3 937.2 33.7L960 36L960 0L937.2 0C914.3 0 868.7 0 823 0C777.3 0 731.7 0 686 0C640.3 0 594.7 0 548.8 0C503 0 457 0 411.2 0C365.3 0 319.7 0 274 0C228.3 0 182.7 0 137 0C91.3 0 45.7 0 22.8 0L0 0Z" fill="#8d7ef1"></path>
</svg>